<svg width="200" height="200" viewBox="0 0 200 200" fill="none" xmlns="http://www.w3.org/2000/svg">
<path d="M72.1297 96.2531C72 96.5256 72 96.8996 72 97.6475V102.352C72 103.101 72 103.475 72.1456 103.761C72.2738 104.012 72.4782 104.217 72.7297 104.345C73.0155 104.491 73.3897 104.491 74.1381 104.491H89.0952C91.3404 104.491 92.463 104.491 93.3206 104.928C94.0749 105.312 94.6881 105.925 95.0725 106.679C95.5095 107.537 95.5095 108.659 95.5095 110.902V125.864C95.5095 126.611 95.5095 126.985 95.6551 127.27C95.7832 127.522 95.9877 127.726 96.2391 127.854C96.5249 128 96.8991 128 97.6475 128H102.353C103.1 128 103.474 128 103.747 127.87C104.002 127.749 104.179 127.587 104.323 127.344C104.476 127.084 104.513 126.677 104.586 125.864C105.602 114.585 114.585 105.602 125.864 104.586C126.677 104.513 127.084 104.476 127.344 104.323C127.587 104.179 127.749 104.002 127.87 103.747C128 103.474 128 103.1 128 102.352V97.6475C128 96.8991 128 96.5249 127.854 96.2391C127.726 95.9876 127.522 95.7832 127.27 95.6551C126.985 95.5094 126.61 95.5094 125.862 95.5094H110.905C108.66 95.5094 107.537 95.5094 106.679 95.0725C105.925 94.6881 105.312 94.0749 104.928 93.3205C104.491 92.463 104.491 91.3414 104.491 89.0981V74.1356C104.491 73.3889 104.491 73.0155 104.345 72.7296C104.217 72.4782 104.012 72.2738 103.761 72.1456C103.475 72 103.101 72 102.353 72H97.6475C96.8996 72 96.5257 72 96.2531 72.1297C95.9983 72.251 95.821 72.4131 95.6773 72.656C95.5237 72.9157 95.487 73.3225 95.4137 74.1359C94.3976 85.4149 85.4155 94.3976 74.1365 95.4137C73.3227 95.487 72.9158 95.5236 72.656 95.6773C72.4131 95.8209 72.251 95.9983 72.1297 96.2531Z" fill="#131211" style="fill:#131211;fill:color(display-p3 0.0745 0.0706 0.0667);fill-opacity:1;"/>
</svg>
