<svg width="200" height="200" viewBox="0 0 200 200" fill="none" xmlns="http://www.w3.org/2000/svg">
<path d="M108.18 102.321L109.485 76.4424L110.722 76L128.146 95.1786L126.704 95.6944L115.708 91.8873L109.667 101.789L108.18 102.321Z" fill="#131211" style="fill:#131211;fill:color(display-p3 0.0745 0.0706 0.0667);fill-opacity:1;"/>
<path d="M116.033 95.4482C117.453 99.4984 117.085 103.735 114.628 106.896C110.326 112.432 101.249 112.577 94.3547 107.219C87.46 101.862 85.3582 93.0307 89.6601 87.4946C93.3558 82.7386 100.575 81.9616 106.908 85.234L107.049 82.4455C95.9188 75.2227 82.2744 75.9957 75.5777 84.6136C68.4134 93.8333 71.9138 108.54 83.396 117.463C94.8781 126.385 109.994 126.144 117.158 116.924C121.897 110.826 121.97 102.327 118.154 94.6895L116.033 95.4482Z" fill="#131211" style="fill:#131211;fill:color(display-p3 0.0745 0.0706 0.0667);fill-opacity:1;"/>
</svg>
