<svg width="200" height="200" viewBox="0 0 200 200" fill="none" xmlns="http://www.w3.org/2000/svg">
<path d="M98.8338 72C98.8338 74.7062 96.6397 76.9 93.933 76.9V80.1667C97.6702 80.1667 100.7 83.1963 100.7 86.9333H103.966C103.966 83.2806 102.012 80.0839 99.0947 78.3291C100.929 76.8314 102.101 74.5525 102.101 72H98.8338Z" fill="#131211" style="fill:#131211;fill:color(display-p3 0.0745 0.0706 0.0667);fill-opacity:1;"/>
<path d="M108.745 75.4163C106.831 77.3299 106.831 80.4323 108.745 82.3458L106.435 84.6557C103.246 81.4665 103.246 76.2956 106.435 73.1064L108.745 75.4163Z" fill="#131211" style="fill:#131211;fill:color(display-p3 0.0745 0.0706 0.0667);fill-opacity:1;"/>
<path d="M118.975 79.3761C117.06 81.2896 113.958 81.2896 112.044 79.3761L109.734 81.6859C112.377 84.3284 112.377 88.6128 109.734 91.2554L112.044 93.5653C114.627 90.9825 115.506 87.3403 114.684 84.0364C117.04 84.2744 119.478 83.4908 121.283 81.6859L118.975 79.3761Z" fill="#131211" style="fill:#131211;fill:color(display-p3 0.0745 0.0706 0.0667);fill-opacity:1;"/>
<path d="M123.567 88.7999C120.86 88.7999 118.666 90.9939 118.666 93.7001H115.399C115.399 89.1897 119.056 85.5333 123.567 85.5333V88.7999Z" fill="#131211" style="fill:#131211;fill:color(display-p3 0.0745 0.0706 0.0667);fill-opacity:1;"/>
<path d="M128 98.8333C125.293 98.8333 123.101 96.6395 123.101 93.9333H119.834C119.834 97.6705 116.804 100.7 113.067 100.7V103.967C116.72 103.967 119.915 102.013 121.671 99.095C123.168 100.929 125.447 102.1 128 102.1V98.8333Z" fill="#131211" style="fill:#131211;fill:color(display-p3 0.0745 0.0706 0.0667);fill-opacity:1;"/>
<path d="M112.657 105.423C110.207 105.423 108.223 103.438 108.223 100.99H104.956C104.956 105.243 108.403 108.69 112.657 108.69V105.423Z" fill="#131211" style="fill:#131211;fill:color(display-p3 0.0745 0.0706 0.0667);fill-opacity:1;"/>
<path d="M124.583 108.745C122.67 106.831 119.568 106.831 117.654 108.745L115.344 106.435C118.533 103.245 123.704 103.245 126.893 106.435L124.583 108.745Z" fill="#131211" style="fill:#131211;fill:color(display-p3 0.0745 0.0706 0.0667);fill-opacity:1;"/>
<path d="M105.114 112.785C103.384 111.053 103.384 108.246 105.114 106.515L102.806 104.205C99.7984 107.212 99.7984 112.087 102.806 115.094L105.114 112.785Z" fill="#131211" style="fill:#131211;fill:color(display-p3 0.0745 0.0706 0.0667);fill-opacity:1;"/>
<path d="M111.2 123.567C111.2 120.86 109.006 118.667 106.3 118.667V115.4C110.81 115.4 114.466 119.056 114.466 123.567H111.2Z" fill="#131211" style="fill:#131211;fill:color(display-p3 0.0745 0.0706 0.0667);fill-opacity:1;"/>
<path d="M106.067 123.1C103.36 123.1 101.166 125.294 101.166 128H97.8995C97.8995 125.447 99.071 123.169 100.905 121.671C97.9878 119.916 96.0335 116.719 96.0335 113.067H99.3003C99.3003 116.804 102.33 119.833 106.067 119.833V123.1Z" fill="#131211" style="fill:#131211;fill:color(display-p3 0.0745 0.0706 0.0667);fill-opacity:1;"/>
<path d="M120.624 118.974C118.71 117.061 118.71 113.958 120.624 112.044L118.314 109.735C115.671 112.377 111.387 112.377 108.745 109.735L106.435 112.044C109.018 114.627 112.66 115.506 115.963 114.684C115.725 117.04 116.509 119.479 118.314 121.284L120.624 118.974Z" fill="#131211" style="fill:#131211;fill:color(display-p3 0.0745 0.0706 0.0667);fill-opacity:1;"/>
<path d="M112.785 94.8852C111.053 96.6166 108.247 96.6166 106.515 94.8852L104.205 97.1951C107.212 100.202 112.088 100.202 115.094 97.1951L112.785 94.8852Z" fill="#131211" style="fill:#131211;fill:color(display-p3 0.0745 0.0706 0.0667);fill-opacity:1;"/>
<path d="M105.423 87.3433C105.423 89.7917 103.438 91.7766 100.99 91.7766V95.0434C105.242 95.0434 108.689 91.5959 108.689 87.3433H105.423Z" fill="#131211" style="fill:#131211;fill:color(display-p3 0.0745 0.0706 0.0667);fill-opacity:1;"/>
<path d="M88.8003 76.4333C88.8003 79.1395 90.9944 81.3333 93.6997 81.3333V84.6C89.1903 84.6 85.5335 80.9437 85.5335 76.4333H88.8003Z" fill="#131211" style="fill:#131211;fill:color(display-p3 0.0745 0.0706 0.0667);fill-opacity:1;"/>
<path d="M94.8857 87.2155C96.616 88.9469 96.616 91.7539 94.8857 93.4853L97.1945 95.7952C100.202 92.788 100.202 87.9127 97.1945 84.9056L94.8857 87.2155Z" fill="#131211" style="fill:#131211;fill:color(display-p3 0.0745 0.0706 0.0667);fill-opacity:1;"/>
<path d="M79.3756 81.0259C81.2903 82.9395 81.2903 86.042 79.3756 87.9556L81.6856 90.2655C84.3291 87.623 88.6131 87.623 91.2553 90.2655L93.5653 87.9556C90.9825 85.3727 87.3402 84.494 84.0365 85.3162C84.275 82.9604 83.491 80.5209 81.6856 78.716L79.3756 81.0259Z" fill="#131211" style="fill:#131211;fill:color(display-p3 0.0745 0.0706 0.0667);fill-opacity:1;"/>
<path d="M75.417 91.2554C77.3304 93.169 80.4324 93.169 82.3458 91.2554L84.6559 93.5653C81.4669 96.7547 76.2959 96.7547 73.1069 93.5653L75.417 91.2554Z" fill="#131211" style="fill:#131211;fill:color(display-p3 0.0745 0.0706 0.0667);fill-opacity:1;"/>
<path d="M87.3428 94.5767C89.7925 94.5767 91.7771 96.5616 91.7771 99.01H95.0439C95.0439 94.7574 91.5966 91.3101 87.3428 91.3101V94.5767Z" fill="#131211" style="fill:#131211;fill:color(display-p3 0.0745 0.0706 0.0667);fill-opacity:1;"/>
<path d="M72 101.167C74.7067 101.167 76.8995 103.36 76.8995 106.067H80.1662C80.1662 102.329 83.1958 99.2999 86.933 99.2999V96.0333C83.2801 96.0333 80.0845 97.9873 78.3293 100.905C76.8323 99.071 74.5525 97.9 72 97.9V101.167Z" fill="#131211" style="fill:#131211;fill:color(display-p3 0.0745 0.0706 0.0667);fill-opacity:1;"/>
<path d="M76.433 111.2C79.1397 111.2 81.3338 109.006 81.3338 106.3H84.6005C84.6005 110.81 80.9437 114.467 76.433 114.467V111.2Z" fill="#131211" style="fill:#131211;fill:color(display-p3 0.0745 0.0706 0.0667);fill-opacity:1;"/>
<path d="M87.215 105.115C88.9465 103.383 91.7534 103.383 93.4849 105.115L95.795 102.805C92.7878 99.7979 87.9121 99.7979 84.9062 102.805L87.215 105.115Z" fill="#131211" style="fill:#131211;fill:color(display-p3 0.0745 0.0706 0.0667);fill-opacity:1;"/>
<path d="M81.0254 120.624C82.9401 118.71 86.0422 118.71 87.9556 120.624L90.2656 118.314C87.6235 115.672 87.6235 111.387 90.2656 108.745L87.9556 106.435C85.3727 109.018 84.4938 112.66 85.3161 115.964C82.9599 115.726 80.522 116.509 78.7167 118.314L81.0254 120.624Z" fill="#131211" style="fill:#131211;fill:color(display-p3 0.0745 0.0706 0.0667);fill-opacity:1;"/>
<path d="M91.2553 124.584C93.1687 122.67 93.1687 119.568 91.2553 117.654L93.5653 115.344C96.7543 118.533 96.7543 123.704 93.5653 126.894L91.2553 124.584Z" fill="#131211" style="fill:#131211;fill:color(display-p3 0.0745 0.0706 0.0667);fill-opacity:1;"/>
<path d="M94.5774 112.657C94.5774 110.208 96.5619 108.223 99.0104 108.223V104.957C94.7579 104.957 91.3106 108.404 91.3106 112.657H94.5774Z" fill="#131211" style="fill:#131211;fill:color(display-p3 0.0745 0.0706 0.0667);fill-opacity:1;"/>
</svg>
